<svg xmlns="http://www.w3.org/2000/svg" xmlns:xlink="http://www.w3.org/1999/xlink" xmlns:lucid="lucid" width="1154" height="1604"><g transform="translate(1526 627)" lucid:page-tab-id="0_0"><path d="M-1292.5-369.9a40 40 0 0 1 40-40h166.5a40 40 0 0 1 40 40v42.26a40 40 0 0 1-40 40h-166.5a40 40 0 0 1-40-40z" stroke="#3a414a" stroke-width="3" fill="#cfe4ff"/><use xlink:href="#a" transform="matrix(1,0,0,1,-1280.171722336961,-403.77474911753546) translate(22.34722222222223 45.08125)"/><use xlink:href="#b" transform="matrix(1,0,0,1,-1280.171722336961,-403.77474911753546) translate(58.747222222222234 76.28125)"/><use xlink:href="#c" transform="matrix(1,0,0,1,-1280.171722336961,-403.77474911753546) translate(90.38055555555556 76.28125)"/><use xlink:href="#d" transform="matrix(1,0,0,1,-1280.171722336961,-403.77474911753546) translate(112.76944444444445 76.28125)"/><path d="M-1292.5-239.47a40 40 0 0 1 40-40h166.5a40 40 0 0 1 40 40v130.2a40 40 0 0 1-40 39.98l-166.5.02a40 40 0 0 1-40-40z" stroke="#3a414a" stroke-width="3" fill="#b8f5ed"/><use xlink:href="#e" transform="matrix(1,0,0,1,-1280.1717223369612,-268.9585611623026) translate(12.308333333333337 86.1125)"/><use xlink:href="#f" transform="matrix(1,0,0,1,-1280.1717223369612,-268.9585611623026) translate(88.57499999999999 86.1125)"/><use xlink:href="#g" transform="matrix(1,0,0,1,-1280.1717223369612,-268.9585611623026) translate(58.025000000000006 117.3125)"/><use xlink:href="#h" transform="matrix(1,0,0,1,-1280.1717223369612,-268.9585611623026) translate(89.65833333333333 117.3125)"/><use xlink:href="#i" transform="matrix(1,0,0,1,-1280.1717223369612,-268.9585611623026) translate(112.04722222222222 117.3125)"/><path d="M-1292.5-21.1a40 40 0 0 1 40-40h166.5a40 40 0 0 1 40 40v141.14a40 40 0 0 1-40 40h-166.5a40 40 0 0 1-40-40z" stroke="#3a414a" stroke-width="3" fill="#c3f7c8"/><use xlink:href="#j" transform="matrix(1,0,0,1,-1280.171722336961,-50.051603839669454) translate(7.216666666666669 89.55)"/><use xlink:href="#k" transform="matrix(1,0,0,1,-1280.171722336961,-50.051603839669454) translate(108.11111111111111 89.55)"/><use xlink:href="#l" transform="matrix(1,0,0,1,-1280.171722336961,-50.051603839669454) translate(58.025000000000006 120.75)"/><use xlink:href="#m" transform="matrix(1,0,0,1,-1280.171722336961,-50.051603839669454) translate(89.65833333333333 120.75)"/><use xlink:href="#n" transform="matrix(1,0,0,1,-1280.171722336961,-50.051603839669454) translate(112.04722222222222 120.75)"/><path d="M-1292.5 208.22a40 40 0 0 1 40-40h166.5a40 40 0 0 1 40 40v59.72a40 40 0 0 1-40 40h-166.5a40 40 0 0 1-40-40z" stroke="#3a414a" stroke-width="3" fill="#fff7a1"/><use xlink:href="#o" transform="matrix(1,0,0,1,-1280.171722336961,175.2053252700752) translate(82.18333333333334 52.3)"/><use xlink:href="#p" transform="matrix(1,0,0,1,-1280.171722336961,175.2053252700752) translate(65.24722222222223 83.5)"/><use xlink:href="#m" transform="matrix(1,0,0,1,-1280.171722336961,175.2053252700752) translate(96.88055555555556 83.5)"/><use xlink:href="#q" transform="matrix(1,0,0,1,-1280.171722336961,175.2053252700752) translate(119.26944444444445 83.5)"/><path d="M-1292.5 356.12a40 40 0 0 1 40-40h166.5a40 40 0 0 1 40 40v132.3a40 40 0 0 1-40 40h-166.5a40 40 0 0 1-40-40z" stroke="#3a414a" stroke-width="3" fill="#ffdda6"/><use xlink:href="#r" transform="matrix(1,0,0,1,-1280.1717223369612,326.73257030638) translate(52.644444444444446 68.8)"/><use xlink:href="#s" transform="matrix(1,0,0,1,-1280.1717223369612,326.73257030638) translate(57.66388888888889 100)"/><use xlink:href="#g" transform="matrix(1,0,0,1,-1280.1717223369612,326.73257030638) translate(58.025000000000006 131.20000000000002)"/><use xlink:href="#h" transform="matrix(1,0,0,1,-1280.1717223369612,326.73257030638) translate(89.65833333333333 131.20000000000002)"/><use xlink:href="#t" transform="matrix(1,0,0,1,-1280.1717223369612,326.73257030638) translate(112.04722222222222 131.20000000000002)"/><path d="M-1292.5 576.6a40 40 0 0 1 40-40h166.5a40 40 0 0 1 40 40v141.14a40 40 0 0 1-40 40h-166.5a40 40 0 0 1-40-40z" stroke="#3a414a" stroke-width="3" fill="#ffd9d9"/><use xlink:href="#u" transform="matrix(1,0,0,1,-1280.1717223369612,547.6502843896426) translate(38.20000000000002 58.3)"/><use xlink:href="#v" transform="matrix(1,0,0,1,-1280.1717223369612,547.6502843896426) translate(137.72222222222223 58.3)"/><use xlink:href="#w" transform="matrix(1,0,0,1,-1280.1717223369612,547.6502843896426) translate(20.18055555555557 89.5)"/><use xlink:href="#x" transform="matrix(1,0,0,1,-1280.1717223369612,547.6502843896426) translate(57.66388888888889 120.7)"/><use xlink:href="#g" transform="matrix(1,0,0,1,-1280.1717223369612,547.6502843896426) translate(58.025000000000006 151.90000000000003)"/><use xlink:href="#h" transform="matrix(1,0,0,1,-1280.1717223369612,547.6502843896426) translate(89.65833333333333 151.90000000000003)"/><use xlink:href="#y" transform="matrix(1,0,0,1,-1280.1717223369612,547.6502843896426) translate(112.04722222222222 151.90000000000003)"/><path d="M-1043-174.4l1.2-.03 2.6-.17 2.54-.26 2.45-.36 2.4-.46 2.34-.55 2.32-.65 2.3-.75 2.26-.84 2.27-.96 2.27-1.07 2.3-1.2 2.3-1.33 2.36-1.5 2.4-1.67 2.47-1.88 2.56-2.1 2.66-2.4 2.8-2.75 2.97-3.16 3.17-3.7 3.48-4.38 3.88-5.35 4.5-6.77 5.55-9.2 8.4-15.36 27.02-51.97 5.57-9.2 4.5-6.78 3.87-5.36 3.48-4.4 3.18-3.7 2.97-3.15 2.8-2.75 2.66-2.4 2.55-2.12 2.48-1.87 2.4-1.68 2.36-1.5 2.3-1.33 2.3-1.2 2.27-1.07 2.26-.95 2.28-.85 2.3-.74.1-.03" stroke="#3a414a" stroke-width="3" stroke-linejoin="round" fill="none"/><path d="M-1042.94-172.93l-1.57.03v-2.95l1.5-.03z" stroke="#3a414a" stroke-width=".05" fill="#3a414a"/><path d="M-872.27-348.34l-11.8 9.27-2.12-14.85z" stroke="#3a414a" stroke-width="3" fill="#3a414a"/><path d="M-867.8-374.48a40 40 0 0 1 40-40h166.48a40 40 0 0 1 40 40v51.43a40 40 0 0 1-40 40H-827.8a40 40 0 0 1-40-40z" stroke="#3a414a" stroke-width="3" fill="#00c2a8"/><use xlink:href="#z" transform="matrix(1,0,0,1,-855.4741612261874,-407.9044783621394) translate(41.738888888888894 31.95625)"/><use xlink:href="#A" transform="matrix(1,0,0,1,-855.4741612261874,-407.9044783621394) translate(57.66388888888889 63.15625)"/><use xlink:href="#B" transform="matrix(1,0,0,1,-855.4741612261874,-407.9044783621394) translate(58.747222222222234 94.35625)"/><use xlink:href="#C" transform="matrix(1,0,0,1,-855.4741612261874,-407.9044783621394) translate(90.38055555555556 94.35625)"/><use xlink:href="#D" transform="matrix(1,0,0,1,-855.4741612261874,-407.9044783621394) translate(112.76944444444445 94.35625)"/><path d="M-867.8-222.72a40 40 0 0 1 40-40h166.48a40 40 0 0 1 40 40v43.8a40 40 0 0 1-40 40H-827.8a40 40 0 0 1-40-40z" stroke="#3a414a" stroke-width="3" fill="#00c2a8"/><use xlink:href="#E" transform="matrix(1,0,0,1,-855.4741612261874,-256.5264151636505) translate(66.33055555555555 31.3)"/><use xlink:href="#A" transform="matrix(1,0,0,1,-855.4741612261874,-256.5264151636505) translate(57.66388888888889 62.5)"/><use xlink:href="#B" transform="matrix(1,0,0,1,-855.4741612261874,-256.5264151636505) translate(58.747222222222234 93.7)"/><use xlink:href="#C" transform="matrix(1,0,0,1,-855.4741612261874,-256.5264151636505) translate(90.38055555555556 93.7)"/><use xlink:href="#D" transform="matrix(1,0,0,1,-855.4741612261874,-256.5264151636505) translate(112.76944444444445 93.7)"/><path d="M-1043-174.4l14.56-.3 12.86-.8 10.86-1.14 9.66-1.42 9.2-1.75 9.78-2.3 48.13-13.3 9.2-1.74 9.66-1.42 10.86-1.14 11.46-.7" stroke="#3a414a" stroke-width="3" stroke-linejoin="round" fill="none"/><path d="M-1042.94-172.93l-1.57.03v-2.95l1.5-.03z" stroke="#3a414a" stroke-width=".05" fill="#3a414a"/><path d="M-872.3-200.75l-12.8 7.8-.36-15z" stroke="#3a414a" stroke-width="3" fill="#3a414a"/><path d="M-867.8-52.43a40 40 0 0 1 40-40h166.48a40 40 0 0 1 40 40v54.4a40 40 0 0 1-40 40H-827.8a40 40 0 0 1-40-40z" stroke="#3a414a" stroke-width="3" fill="#54c45e"/><use xlink:href="#F" transform="matrix(1,0,0,1,-855.4741612261874,-85.71100397287059) translate(19.42222222222223 51.05)"/><use xlink:href="#A" transform="matrix(1,0,0,1,-855.4741612261874,-85.71100397287059) translate(95.90555555555555 51.05)"/><use xlink:href="#B" transform="matrix(1,0,0,1,-855.4741612261874,-85.71100397287059) translate(58.747222222222234 82.25)"/><use xlink:href="#C" transform="matrix(1,0,0,1,-855.4741612261874,-85.71100397287059) translate(90.38055555555556 82.25)"/><use xlink:href="#D" transform="matrix(1,0,0,1,-855.4741612261874,-85.71100397287059) translate(112.76944444444445 82.25)"/><path d="M-1043 49.44l4.65-.1 5.64-.35 5.2-.56 4.88-.72 4.58-.87 4.36-1.02 4.18-1.17 4.05-1.32 3.96-1.47 3.93-1.65 3.93-1.85 4-2.1 4.17-2.4 4.47-2.84 5.04-3.5 6.36-4.84 31.75-25.98 5.04-3.5 4.46-2.85 4.16-2.4 4-2.1 3.94-1.85 3.9-1.65 3.98-1.47 4.05-1.32 4.17-1.16 4.36-1.03 4.58-.88 4.46-.66" stroke="#3a414a" stroke-width="3" stroke-linejoin="round" fill="none"/><path d="M-1042.94 50.9l-1.57.04V48l1.5-.04z" stroke="#3a414a" stroke-width=".05" fill="#3a414a"/><path d="M-872.3-25.04l-12.5 8.3-.93-14.97z" stroke="#3a414a" stroke-width="3" fill="#3a414a"/><path d="M-867.8 101.92a40 40 0 0 1 40-40h166.48a40 40 0 0 1 40 40v52.64a40 40 0 0 1-40 40H-827.8a40 40 0 0 1-40-40z" stroke="#3a414a" stroke-width="3" fill="#54c45e"/><g><use xlink:href="#G" transform="matrix(1,0,0,1,-855.4741612261874,68.54857707162773) translate(22.311111111111117 35.8)"/><use xlink:href="#H" transform="matrix(1,0,0,1,-855.4741612261874,68.54857707162773) translate(106.01666666666667 35.8)"/><use xlink:href="#I" transform="matrix(1,0,0,1,-855.4741612261874,68.54857707162773) translate(57.66388888888889 67)"/><use xlink:href="#B" transform="matrix(1,0,0,1,-855.4741612261874,68.54857707162773) translate(58.747222222222234 98.2)"/><use xlink:href="#C" transform="matrix(1,0,0,1,-855.4741612261874,68.54857707162773) translate(90.38055555555556 98.2)"/><use xlink:href="#D" transform="matrix(1,0,0,1,-855.4741612261874,68.54857707162773) translate(112.76944444444445 98.2)"/></g><path d="M-1043 49.5l4.34.1 5.4.32 5 .53 4.67.7 4.43.83 4.2 1 4.05 1.12 3.92 1.27 3.84 1.43 3.78 1.6 3.78 1.77 3.84 2 3.95 2.3 4.16 2.64 4.57 3.2 5.33 4.04 7.4 6.14 26.27 22.88 5.33 4.06 4.57 3.17 4.17 2.65 3.95 2.28 3.83 2 3.8 1.78 3.77 1.6 3.84 1.43 3.9 1.28 4.05 1.13 4.2 1 4.43.83 3.48.52" stroke="#3a414a" stroke-width="3" stroke-linejoin="round" fill="none"/><path d="M-1042.94 48.02l-.06 2.95-1.5-.03V48z" stroke="#3a414a" stroke-width=".05" fill="#3a414a"/><path d="M-872.3 128.04l-13.45 6.62 1-14.97z" stroke="#3a414a" stroke-width="3" fill="#3a414a"/><path d="M-1292.5-500.3a40 40 0 0 1 40-40h166.5a40 40 0 0 1 40 40v42.24a40 40 0 0 1-40 40h-166.5a40 40 0 0 1-40-40z" stroke="#3a414a" stroke-width="3" fill="#dedeff"/><g><use xlink:href="#J" transform="matrix(1,0,0,1,-1280.171722336961,-534.193975451244) translate(14.511111111111134 45.08125)"/><use xlink:href="#K" transform="matrix(1,0,0,1,-1280.171722336961,-534.193975451244) translate(115.40555555555555 45.08125)"/><use xlink:href="#B" transform="matrix(1,0,0,1,-1280.171722336961,-534.193975451244) translate(65.24722222222223 76.28125)"/><use xlink:href="#C" transform="matrix(1,0,0,1,-1280.171722336961,-534.193975451244) translate(96.88055555555556 76.28125)"/><use xlink:href="#L" transform="matrix(1,0,0,1,-1280.171722336961,-534.193975451244) translate(119.26944444444445 76.28125)"/></g><path d="M-867.8 254.5a40 40 0 0 1 40-40h166.48a40 40 0 0 1 40 40v45.55a40 40 0 0 1-40 40H-827.8a40 40 0 0 1-40-40z" stroke="#3a414a" stroke-width="3" fill="#fc9432"/><g><use xlink:href="#M" transform="matrix(1,0,0,1,-855.4741612261874,220.77187954198445) translate(36.06944444444446 31.4875)"/><use xlink:href="#N" transform="matrix(1,0,0,1,-855.4741612261874,220.77187954198445) translate(138.3361111111111 31.4875)"/><use xlink:href="#I" transform="matrix(1,0,0,1,-855.4741612261874,220.77187954198445) translate(57.66388888888889 62.6875)"/><use xlink:href="#B" transform="matrix(1,0,0,1,-855.4741612261874,220.77187954198445) translate(65.24722222222223 93.8875)"/><use xlink:href="#C" transform="matrix(1,0,0,1,-855.4741612261874,220.77187954198445) translate(96.88055555555556 93.8875)"/><use xlink:href="#O" transform="matrix(1,0,0,1,-855.4741612261874,220.77187954198445) translate(119.26944444444445 93.8875)"/></g><path d="M-867.8 400a40 40 0 0 1 40-40h166.48a40 40 0 0 1 40 40v52.63a40 40 0 0 1-40 40H-827.8a40 40 0 0 1-40-40z" stroke="#3a414a" stroke-width="3" fill="#fc9432"/><g><use xlink:href="#P" transform="matrix(1,0,0,1,-855.4741612261874,366.6207447367674) translate(44.663888888888906 20.8)"/><use xlink:href="#Q" transform="matrix(1,0,0,1,-855.4741612261874,366.6207447367674) translate(51.272222222222226 52)"/><use xlink:href="#I" transform="matrix(1,0,0,1,-855.4741612261874,366.6207447367674) translate(57.66388888888889 83.2)"/><use xlink:href="#B" transform="matrix(1,0,0,1,-855.4741612261874,366.6207447367674) translate(65.24722222222223 114.4)"/><use xlink:href="#C" transform="matrix(1,0,0,1,-855.4741612261874,366.6207447367674) translate(96.88055555555556 114.4)"/><use xlink:href="#O" transform="matrix(1,0,0,1,-855.4741612261874,366.6207447367674) translate(119.26944444444445 114.4)"/></g><path d="M-1043 422.74l1.72-.03 3.1-.2 2.97-.3 2.86-.42 2.78-.53 2.7-.64 2.67-.73 2.62-.85 2.6-.96 2.55-1.08 2.57-1.2 2.57-1.35 2.6-1.5 2.64-1.68 2.7-1.87 2.76-2.1 2.87-2.38 3-2.7 3.2-3.12 3.4-3.65 3.78-4.37 4.28-5.4 5.16-7.14 7.25-10.97 28.75-46.03 5.16-7.12 4.28-5.4 3.76-4.38 3.43-3.65 3.18-3.12 3.02-2.7 2.87-2.38 2.76-2.1 2.7-1.88 2.62-1.68 2.6-1.5 2.57-1.35 2.57-1.2 2.56-1.08 2.6-.97 2.6-.85 2.66-.74.34-.08" stroke="#3a414a" stroke-width="3" stroke-linejoin="round" fill="none"/><path d="M-1042.94 424.22l-1.57.03v-2.95l1.5-.03z" stroke="#3a414a" stroke-width=".05" fill="#3a414a"/><path d="M-872.28 277.63l-12 9-1.8-14.9z" stroke="#3a414a" stroke-width="3" fill="#3a414a"/><path d="M-1043 422.3l71.48 1.33 84.74 2.22" stroke="#3a414a" stroke-width="3" stroke-linejoin="round" fill="none"/><path d="M-1042.94 420.82l-.06 2.95-1.5-.03v-2.95z" stroke="#3a414a" stroke-width=".05" fill="#3a414a"/><path d="M-872.3 426.23l-13.18 7.16.4-15z" stroke="#3a414a" stroke-width="3" fill="#3a414a"/><path d="M-867.8 552.57a40 40 0 0 1 40-40h166.48a40 40 0 0 1 40 40v49.1a40 40 0 0 1-40 40H-827.8a40 40 0 0 1-40-40z" stroke="#3a414a" stroke-width="3" fill="#fe7070"/><g><use xlink:href="#R" transform="matrix(1,0,0,1,-855.4741612261874,519.0211149092233) translate(17.327777777777783 20.8)"/><use xlink:href="#S" transform="matrix(1,0,0,1,-855.4741612261874,519.0211149092233) translate(71.3138888888889 52)"/><use xlink:href="#I" transform="matrix(1,0,0,1,-855.4741612261874,519.0211149092233) translate(57.66388888888889 83.2)"/><use xlink:href="#B" transform="matrix(1,0,0,1,-855.4741612261874,519.0211149092233) translate(65.24722222222223 114.4)"/><use xlink:href="#C" transform="matrix(1,0,0,1,-855.4741612261874,519.0211149092233) translate(96.88055555555556 114.4)"/><use xlink:href="#T" transform="matrix(1,0,0,1,-855.4741612261874,519.0211149092233) translate(119.26944444444445 114.4)"/></g><path d="M-867.8 701.6a40 40 0 0 1 40-40h166.48a40 40 0 0 1 40 40v45.56a40 40 0 0 1-40 40H-827.8a40 40 0 0 1-40-40z" stroke="#3a414a" stroke-width="3" fill="#fe7070"/><g><use xlink:href="#U" transform="matrix(1,0,0,1,-855.4741612261874,667.880131039694) translate(31.700000000000017 31.4875)"/><use xlink:href="#S" transform="matrix(1,0,0,1,-855.4741612261874,667.880131039694) translate(110.92777777777778 31.4875)"/><use xlink:href="#I" transform="matrix(1,0,0,1,-855.4741612261874,667.880131039694) translate(57.66388888888889 62.6875)"/><use xlink:href="#B" transform="matrix(1,0,0,1,-855.4741612261874,667.880131039694) translate(65.24722222222223 93.8875)"/><use xlink:href="#C" transform="matrix(1,0,0,1,-855.4741612261874,667.880131039694) translate(96.88055555555556 93.8875)"/><use xlink:href="#V" transform="matrix(1,0,0,1,-855.4741612261874,667.880131039694) translate(119.26944444444445 93.8875)"/></g><path d="M-867.8 847.1a40 40 0 0 1 40-40h166.48a40 40 0 0 1 40 40v49.1a40 40 0 0 1-40 40H-827.8a40 40 0 0 1-40-40z" stroke="#3a414a" stroke-width="3" fill="#fe7070"/><g><use xlink:href="#W" transform="matrix(1,0,0,1,-855.4741612261874,813.5519285323785) translate(39.71666666666667 31.76875)"/><use xlink:href="#A" transform="matrix(1,0,0,1,-855.4741612261874,813.5519285323785) translate(57.66388888888889 62.96875)"/><use xlink:href="#B" transform="matrix(1,0,0,1,-855.4741612261874,813.5519285323785) translate(65.24722222222223 94.16875)"/><use xlink:href="#C" transform="matrix(1,0,0,1,-855.4741612261874,813.5519285323785) translate(96.88055555555556 94.16875)"/><use xlink:href="#X" transform="matrix(1,0,0,1,-855.4741612261874,813.5519285323785) translate(119.26944444444445 94.16875)"/></g><path d="M-1043 648.5l4.92-.1 5.86-.37 5.4-.56 5.04-.75 4.73-.9 4.5-1.05 4.3-1.2 4.15-1.35 4.08-1.52 4.03-1.7 4.08-1.9 4.16-2.2 4.38-2.52 4.8-3.04 5.62-3.92 8.23-6.28 23.88-18.9 5.63-3.93 4.8-3.03 4.37-2.53 4.16-2.18 4.07-1.9 4.04-1.7 4.1-1.53 4.15-1.35 4.3-1.2 4.5-1.05 4.72-.9 5.03-.75.25-.02" stroke="#3a414a" stroke-width="3" stroke-linejoin="round" fill="none"/><path d="M-1042.94 649.98l-1.57.03v-2.94l1.5-.03z" stroke="#3a414a" stroke-width=".05" fill="#3a414a"/><path d="M-872.3 577.3l-12.5 8.25-.9-14.97z" stroke="#3a414a" stroke-width="3" fill="#3a414a"/><path d="M-1043 647.2l4.46.1 5.48.34 5.08.53 4.75.7 4.48.85 4.27 1 4.1 1.15 3.96 1.3 3.88 1.43 3.83 1.6 3.83 1.82 3.9 2.03 4.02 2.33 4.28 2.72 4.72 3.28 5.65 4.3 8.67 7.2 22.12 19 5.63 4.28 4.73 3.3 4.27 2.7 4.03 2.34 3.9 2.03 3.84 1.8 3.83 1.62 3.88 1.44 3.98 1.28 4.1 1.15 4.26 1 4.48.85 3.84.57" stroke="#3a414a" stroke-width="3" stroke-linejoin="round" fill="none"/><path d="M-1042.94 645.73l-.06 2.94-1.5-.03v-2.95z" stroke="#3a414a" stroke-width=".05" fill="#3a414a"/><path d="M-872.3 724.2l-13.44 6.63.97-14.97z" stroke="#3a414a" stroke-width="3" fill="#3a414a"/><path d="M-1043 647.26h.6l2.06.14 2 .22 1.97.28 1.94.37 1.9.45 1.9.53 1.9.62 1.88.7 1.9.8 1.9.9 1.92 1 1.96 1.13 2 1.27 2.05 1.42 2.1 1.6 2.2 1.8 2.27 2.06 2.4 2.34 2.5 2.68 2.68 3.1 2.88 3.63 3.13 4.32 3.45 5.2 3.88 6.4 4.5 8.24 5.57 11.22 7.9 17.82 33.43 81.7 5.56 11.22 4.5 8.23 3.9 6.42 3.44 5.2 3.12 4.3 2.88 3.63 2.67 3.1 2.52 2.68 2.38 2.34 2.28 2.05 2.2 1.8 2.1 1.6 2.06 1.44 2 1.28 1.96 1.13 1.92 1.02 1.9.9 1.9.8.55.2" stroke="#3a414a" stroke-width="3" stroke-linejoin="round" fill="none"/><path d="M-1042.94 645.8l-.06 2.94-1.5-.03v-2.95z" stroke="#3a414a" stroke-width=".05" fill="#3a414a"/><path d="M-872.25 871.1l-14.13 5.04 2.7-14.75z" stroke="#3a414a" stroke-width="3" fill="#3a414a"/><defs><path d="M169-182c-1-43-94-46-97-3 18 66 151 10 154 114 3 95-165 93-204 36-6-8-10-19-12-30l50-8c3 46 112 56 116 5-17-69-150-10-154-114-4-87 153-88 188-35 5 8 8 18 10 28" id="Y"/><path d="M190-63c-7 42-38 67-86 67-59 0-84-38-90-98-12-110 154-137 174-36l-49 2c-2-19-15-32-35-32-30 0-35 28-38 64-6 74 65 87 74 30" id="Z"/><path d="M114-157C55-157 80-60 75 0H25v-261h50l-1 109c12-26 28-41 61-42 86-1 58 113 63 194h-50c-7-57 23-157-34-157" id="aa"/><path d="M25-224v-37h50v37H25zM25 0v-190h50V0H25" id="ab"/><path d="M12 0v-35l95-120H19v-35h142v35L67-36h103V0H12" id="ac"/><path d="M110-194c64 0 96 36 96 99 0 64-35 99-97 99-61 0-95-36-95-99 0-62 34-99 96-99zm-1 164c35 0 45-28 45-65 0-40-10-65-43-65-34 0-45 26-45 65 0 36 10 65 43 65" id="ad"/><path d="M135-194c53 0 70 44 70 98 0 56-19 98-73 100-31 1-45-17-59-34 3 33 2 69 2 105H25l-1-265h48c2 10 0 23 3 31 11-24 29-35 60-35zM114-30c33 0 39-31 40-66 0-38-9-64-40-64-56 0-55 130 0 130" id="ae"/><path d="M135-150c-39-12-60 13-60 57V0H25l-1-190h47c2 13-1 29 3 40 6-28 27-53 61-41v41" id="af"/><path d="M185-48c-13 30-37 53-82 52C43 2 14-33 14-96s30-98 90-98c62 0 83 45 84 108H66c0 31 8 55 39 56 18 0 30-7 34-22zm-45-69c5-46-57-63-70-21-2 6-4 13-4 21h74" id="ag"/><path d="M135-194c87-1 58 113 63 194h-50c-7-57 23-157-34-157-59 0-34 97-39 157H25l-1-190h47c2 12-1 28 3 38 12-26 28-41 61-42" id="ah"/><path d="M133-34C117-15 103 5 69 4 32 3 11-16 11-54c-1-60 55-63 116-61 1-26-3-47-28-47-18 1-26 9-28 27l-52-2c7-38 36-58 82-57s74 22 75 68l1 82c-1 14 12 18 25 15v27c-30 8-71 5-69-32zm-48 3c29 0 43-24 42-57-32 0-66-3-65 30 0 17 8 27 23 27" id="ai"/><g id="a"><use transform="matrix(0.07222222222222222,0,0,0.07222222222222222,0,0)" xlink:href="#Y"/><use transform="matrix(0.07222222222222222,0,0,0.07222222222222222,17.333333333333332,0)" xlink:href="#Z"/><use transform="matrix(0.07222222222222222,0,0,0.07222222222222222,31.777777777777775,0)" xlink:href="#aa"/><use transform="matrix(0.07222222222222222,0,0,0.07222222222222222,47.59444444444444,0)" xlink:href="#ab"/><use transform="matrix(0.07222222222222222,0,0,0.07222222222222222,54.81666666666666,0)" xlink:href="#ac"/><use transform="matrix(0.07222222222222222,0,0,0.07222222222222222,67.81666666666666,0)" xlink:href="#ad"/><use transform="matrix(0.07222222222222222,0,0,0.07222222222222222,83.63333333333333,0)" xlink:href="#ae"/><use transform="matrix(0.07222222222222222,0,0,0.07222222222222222,99.44999999999999,0)" xlink:href="#aa"/><use transform="matrix(0.07222222222222222,0,0,0.07222222222222222,115.26666666666665,0)" xlink:href="#af"/><use transform="matrix(0.07222222222222222,0,0,0.07222222222222222,125.37777777777777,0)" xlink:href="#ag"/><use transform="matrix(0.07222222222222222,0,0,0.07222222222222222,139.8222222222222,0)" xlink:href="#ah"/><use transform="matrix(0.07222222222222222,0,0,0.07222222222222222,155.63888888888883,0)" xlink:href="#ab"/><use transform="matrix(0.07222222222222222,0,0,0.07222222222222222,162.8611111111111,0)" xlink:href="#ai"/></g><path d="M67-93c0 74 22 123 53 168H70C40 30 18-18 18-93s22-123 52-168h50c-32 44-53 94-53 168" id="aj"/><g id="b"><use transform="matrix(0.07222222222222222,0,0,0.07222222222222222,0,0)" xlink:href="#aj"/><use transform="matrix(0.07222222222222222,0,0,0.07222222222222222,8.594444444444443,0)" xlink:href="#ah"/></g><path d="M15-148v-39h180v39H15zm0 97v-39h180v39H15" id="ak"/><use transform="matrix(0.07222222222222222,0,0,0.07222222222222222,0,0)" xlink:href="#ak" id="c"/><path d="M23 0v-37h61v-169l-59 37v-38l62-41h46v211h57V0H23" id="al"/><path d="M52 0c1-96 47-148 87-207H15v-41h169v40c-36 62-79 113-81 208H52" id="am"/><path d="M102-93c0 74-22 123-52 168H0C30 29 54-18 53-93c0-74-22-123-53-168h50c30 45 52 94 52 168" id="an"/><g id="d"><use transform="matrix(0.07222222222222222,0,0,0.07222222222222222,0,0)" xlink:href="#al"/><use transform="matrix(0.07222222222222222,0,0,0.07222222222222222,12.999999999999998,0)" xlink:href="#al"/><use transform="matrix(0.07222222222222222,0,0,0.07222222222222222,27.444444444444443,0)" xlink:href="#am"/><use transform="matrix(0.07222222222222222,0,0,0.07222222222222222,41.888888888888886,0)" xlink:href="#an"/></g><path d="M230 0l2-204L168 0h-37L68-204 70 0H24v-248h70l56 185 57-185h69V0h-46" id="ao"/><path d="M88-194c31-1 46 15 58 34l-1-101h50l1 261h-48c-2-10 0-23-3-31C134-8 116 4 84 4 32 4 16-41 15-95c0-56 19-97 73-99zm17 164c33 0 40-30 41-66 1-37-9-64-41-64s-38 30-39 65c0 43 13 65 39 65" id="ap"/><g id="e"><use transform="matrix(0.07222222222222222,0,0,0.07222222222222222,0,0)" xlink:href="#ao"/><use transform="matrix(0.07222222222222222,0,0,0.07222222222222222,21.59444444444444,0)" xlink:href="#ad"/><use transform="matrix(0.07222222222222222,0,0,0.07222222222222222,37.411111111111104,0)" xlink:href="#ad"/><use transform="matrix(0.07222222222222222,0,0,0.07222222222222222,53.22777777777777,0)" xlink:href="#ap"/></g><path d="M24-248c120-7 223 5 221 122C244-46 201 0 124 0H24v-248zM76-40c74 7 117-18 117-86 0-67-45-88-117-82v168" id="aq"/><path d="M137-138c1-29-70-34-71-4 15 46 118 7 119 86 1 83-164 76-172 9l43-7c4 19 20 25 44 25 33 8 57-30 24-41C81-84 22-81 20-136c-2-80 154-74 161-7" id="ar"/><g id="f"><use transform="matrix(0.07222222222222222,0,0,0.07222222222222222,0,0)" xlink:href="#aq"/><use transform="matrix(0.07222222222222222,0,0,0.07222222222222222,18.705555555555552,0)" xlink:href="#ab"/><use transform="matrix(0.07222222222222222,0,0,0.07222222222222222,25.927777777777774,0)" xlink:href="#ar"/><use transform="matrix(0.07222222222222222,0,0,0.07222222222222222,40.37222222222222,0)" xlink:href="#ad"/><use transform="matrix(0.07222222222222222,0,0,0.07222222222222222,56.18888888888888,0)" xlink:href="#af"/><use transform="matrix(0.07222222222222222,0,0,0.07222222222222222,66.3,0)" xlink:href="#ap"/><use transform="matrix(0.07222222222222222,0,0,0.07222222222222222,82.11666666666666,0)" xlink:href="#ag"/><use transform="matrix(0.07222222222222222,0,0,0.07222222222222222,96.5611111111111,0)" xlink:href="#af"/><use transform="matrix(0.07222222222222222,0,0,0.07222222222222222,106.67222222222222,0)" xlink:href="#ar"/></g><g id="g"><use transform="matrix(0.07222222222222222,0,0,0.07222222222222222,0,0)" xlink:href="#aj"/><use transform="matrix(0.07222222222222222,0,0,0.07222222222222222,8.594444444444443,0)" xlink:href="#ah"/></g><use transform="matrix(0.07222222222222222,0,0,0.07222222222222222,0,0)" xlink:href="#ak" id="h"/><path d="M182-182c0 78-84 86-111 141h115V0H12c-6-101 99-100 120-180 1-22-12-31-33-32-23 0-32 14-35 34l-49-3c5-45 32-70 84-70 51 0 83 22 83 69" id="as"/><path d="M115-159c48 0 72 30 72 78 0 54-30 85-83 85-64 0-91-50-91-122 0-98 58-163 141-120 15 8 21 24 27 44l-47 6c-5-31-48-31-61-4-7 14-11 33-11 60 9-17 28-27 53-27zM102-35c24 0 36-20 36-45s-11-43-37-43c-23 0-36 14-36 38 0 27 11 50 37 50" id="at"/><g id="i"><use transform="matrix(0.07222222222222222,0,0,0.07222222222222222,0,0)" xlink:href="#as"/><use transform="matrix(0.07222222222222222,0,0,0.07222222222222222,14.444444444444443,0)" xlink:href="#at"/><use transform="matrix(0.07222222222222222,0,0,0.07222222222222222,28.888888888888886,0)" xlink:href="#at"/><use transform="matrix(0.07222222222222222,0,0,0.07222222222222222,43.33333333333333,0)" xlink:href="#an"/></g><path d="M199 0l-22-63H83L61 0H9l90-248h61L250 0h-51zm-33-102l-36-108c-10 38-24 72-36 108h72" id="au"/><path d="M144 0l-44-69L55 0H2l70-98-66-92h53l41 62 40-62h54l-67 91 71 99h-54" id="av"/><path d="M115-3C79 11 28 4 28-45v-112H4v-33h27l15-45h31v45h36v33H77v99c-1 23 16 31 38 25v30" id="aw"/><path d="M123 10C108 53 80 86 19 72V37c35 8 53-11 59-39L3-190h52l48 148c12-52 28-100 44-148h51" id="ax"/><g id="j"><use transform="matrix(0.07222222222222222,0,0,0.07222222222222222,0,0)" xlink:href="#au"/><use transform="matrix(0.07222222222222222,0,0,0.07222222222222222,18.705555555555552,0)" xlink:href="#ah"/><use transform="matrix(0.07222222222222222,0,0,0.07222222222222222,34.52222222222222,0)" xlink:href="#av"/><use transform="matrix(0.07222222222222222,0,0,0.07222222222222222,48.96666666666666,0)" xlink:href="#ab"/><use transform="matrix(0.07222222222222222,0,0,0.07222222222222222,56.18888888888888,0)" xlink:href="#ag"/><use transform="matrix(0.07222222222222222,0,0,0.07222222222222222,70.63333333333333,0)" xlink:href="#aw"/><use transform="matrix(0.07222222222222222,0,0,0.07222222222222222,79.22777777777777,0)" xlink:href="#ax"/></g><g id="k"><use transform="matrix(0.07222222222222222,0,0,0.07222222222222222,0,0)" xlink:href="#aq"/><use transform="matrix(0.07222222222222222,0,0,0.07222222222222222,18.705555555555552,0)" xlink:href="#ab"/><use transform="matrix(0.07222222222222222,0,0,0.07222222222222222,25.927777777777774,0)" xlink:href="#ar"/><use transform="matrix(0.07222222222222222,0,0,0.07222222222222222,40.37222222222222,0)" xlink:href="#ad"/><use transform="matrix(0.07222222222222222,0,0,0.07222222222222222,56.18888888888888,0)" xlink:href="#af"/><use transform="matrix(0.07222222222222222,0,0,0.07222222222222222,66.3,0)" xlink:href="#ap"/><use transform="matrix(0.07222222222222222,0,0,0.07222222222222222,82.11666666666666,0)" xlink:href="#ag"/><use transform="matrix(0.07222222222222222,0,0,0.07222222222222222,96.5611111111111,0)" xlink:href="#af"/></g><g id="l"><use transform="matrix(0.07222222222222222,0,0,0.07222222222222222,0,0)" xlink:href="#aj"/><use transform="matrix(0.07222222222222222,0,0,0.07222222222222222,8.594444444444443,0)" xlink:href="#ah"/></g><use transform="matrix(0.07222222222222222,0,0,0.07222222222222222,0,0)" xlink:href="#ak" id="m"/><path d="M101-251c68 0 84 54 84 127C185-50 166 4 99 4S15-52 14-124c-1-75 17-127 87-127zm-1 216c37-5 36-46 36-89s4-89-36-89c-39 0-36 45-36 89 0 43-3 85 36 89" id="ay"/><g id="n"><use transform="matrix(0.07222222222222222,0,0,0.07222222222222222,0,0)" xlink:href="#al"/><use transform="matrix(0.07222222222222222,0,0,0.07222222222222222,14.444444444444443,0)" xlink:href="#ay"/><use transform="matrix(0.07222222222222222,0,0,0.07222222222222222,28.888888888888886,0)" xlink:href="#am"/><use transform="matrix(0.07222222222222222,0,0,0.07222222222222222,43.33333333333333,0)" xlink:href="#an"/></g><path d="M140-251c80 0 125 45 125 126S219 4 139 4C58 4 15-44 15-125s44-126 125-126zm-1 214c52 0 73-35 73-88 0-50-21-86-72-86-52 0-73 35-73 86s22 88 72 88" id="az"/><path d="M67-125c0 53 21 87 73 88 37 1 54-22 65-47l45 17C233-25 199 4 140 4 58 4 20-42 15-125 8-235 124-281 211-232c18 10 29 29 36 50l-46 12c-8-25-30-41-62-41-52 0-71 34-72 86" id="aA"/><g id="o"><use transform="matrix(0.07222222222222222,0,0,0.07222222222222222,0,0)" xlink:href="#az"/><use transform="matrix(0.07222222222222222,0,0,0.07222222222222222,20.22222222222222,0)" xlink:href="#aA"/><use transform="matrix(0.07222222222222222,0,0,0.07222222222222222,38.92777777777778,0)" xlink:href="#aq"/></g><g id="p"><use transform="matrix(0.07222222222222222,0,0,0.07222222222222222,0,0)" xlink:href="#aj"/><use transform="matrix(0.07222222222222222,0,0,0.07222222222222222,8.594444444444443,0)" xlink:href="#ah"/></g><path d="M165-50V0h-47v-50H5v-38l105-160h55v161h33v37h-33zm-47-37l2-116L46-87h72" id="aB"/><g id="q"><use transform="matrix(0.07222222222222222,0,0,0.07222222222222222,0,0)" xlink:href="#aB"/><use transform="matrix(0.07222222222222222,0,0,0.07222222222222222,14.444444444444443,0)" xlink:href="#at"/><use transform="matrix(0.07222222222222222,0,0,0.07222222222222222,28.888888888888886,0)" xlink:href="#an"/></g><path d="M128 0H69L1-190h53L99-40l48-150h52" id="aC"/><g id="r"><use transform="matrix(0.07222222222222222,0,0,0.07222222222222222,0,0)" xlink:href="#au"/><use transform="matrix(0.07222222222222222,0,0,0.07222222222222222,18.705555555555552,0)" xlink:href="#ap"/><use transform="matrix(0.07222222222222222,0,0,0.07222222222222222,34.52222222222222,0)" xlink:href="#ap"/><use transform="matrix(0.07222222222222222,0,0,0.07222222222222222,50.33888888888888,0)" xlink:href="#ab"/><use transform="matrix(0.07222222222222222,0,0,0.07222222222222222,57.5611111111111,0)" xlink:href="#Z"/><use transform="matrix(0.07222222222222222,0,0,0.07222222222222222,72.00555555555555,0)" xlink:href="#aw"/><use transform="matrix(0.07222222222222222,0,0,0.07222222222222222,80.6,0)" xlink:href="#ab"/><use transform="matrix(0.07222222222222222,0,0,0.07222222222222222,87.82222222222224,0)" xlink:href="#aC"/><use transform="matrix(0.07222222222222222,0,0,0.07222222222222222,102.26666666666668,0)" xlink:href="#ag"/></g><g id="s"><use transform="matrix(0.07222222222222222,0,0,0.07222222222222222,0,0)" xlink:href="#aq"/><use transform="matrix(0.07222222222222222,0,0,0.07222222222222222,18.705555555555552,0)" xlink:href="#ab"/><use transform="matrix(0.07222222222222222,0,0,0.07222222222222222,25.927777777777774,0)" xlink:href="#ar"/><use transform="matrix(0.07222222222222222,0,0,0.07222222222222222,40.37222222222222,0)" xlink:href="#ad"/><use transform="matrix(0.07222222222222222,0,0,0.07222222222222222,56.18888888888888,0)" xlink:href="#af"/><use transform="matrix(0.07222222222222222,0,0,0.07222222222222222,66.3,0)" xlink:href="#ap"/><use transform="matrix(0.07222222222222222,0,0,0.07222222222222222,82.11666666666666,0)" xlink:href="#ag"/><use transform="matrix(0.07222222222222222,0,0,0.07222222222222222,96.5611111111111,0)" xlink:href="#af"/></g><path d="M138-131c27 9 52 24 51 61 0 53-36 74-89 74S11-19 11-69c0-35 22-54 51-61-78-25-46-121 38-121 51 0 83 19 83 66 0 30-18 49-45 54zm-38-16c24 0 32-13 32-36 1-23-11-34-32-34-22 0-33 12-32 34 0 22 9 36 32 36zm1 116c27 0 37-17 37-43 0-25-13-39-39-39-24 0-37 15-37 40 0 27 11 42 39 42" id="aD"/><g id="t"><use transform="matrix(0.07222222222222222,0,0,0.07222222222222222,0,0)" xlink:href="#al"/><use transform="matrix(0.07222222222222222,0,0,0.07222222222222222,14.444444444444443,0)" xlink:href="#aD"/><use transform="matrix(0.07222222222222222,0,0,0.07222222222222222,28.888888888888886,0)" xlink:href="#at"/><use transform="matrix(0.07222222222222222,0,0,0.07222222222222222,43.33333333333333,0)" xlink:href="#an"/></g><path d="M136-208V0H84v-208H4v-40h212v40h-80" id="aE"/><path d="M85 4C-2 5 27-109 22-190h50c7 57-23 150 33 157 60-5 35-97 40-157h50l1 190h-47c-2-12 1-28-3-38-12 25-28 42-61 42" id="aF"/><path d="M220-157c-53 9-28 100-34 157h-49v-107c1-27-5-49-29-50C55-147 81-57 75 0H25l-1-190h47c2 12-1 28 3 38 10-53 101-56 108 0 13-22 24-43 59-42 82 1 51 116 57 194h-49v-107c-1-25-5-48-29-50" id="aG"/><g id="u"><use transform="matrix(0.07222222222222222,0,0,0.07222222222222222,0,0)" xlink:href="#aE"/><use transform="matrix(0.07222222222222222,0,0,0.07222222222222222,14.37222222222222,0)" xlink:href="#af"/><use transform="matrix(0.07222222222222222,0,0,0.07222222222222222,24.48333333333333,0)" xlink:href="#ai"/><use transform="matrix(0.07222222222222222,0,0,0.07222222222222222,38.92777777777778,0)" xlink:href="#aF"/><use transform="matrix(0.07222222222222222,0,0,0.07222222222222222,54.74444444444444,0)" xlink:href="#aG"/><use transform="matrix(0.07222222222222222,0,0,0.07222222222222222,77.85555555555555,0)" xlink:href="#ai"/></g><g id="v"><use transform="matrix(0.07222222222222222,0,0,0.07222222222222222,0,0)" xlink:href="#ai"/><use transform="matrix(0.07222222222222222,0,0,0.07222222222222222,14.444444444444443,0)" xlink:href="#ah"/><use transform="matrix(0.07222222222222222,0,0,0.07222222222222222,30.261111111111106,0)" xlink:href="#ap"/></g><path d="M14-72v-43h91v43H14" id="aH"/><path d="M240-174c0 40-23 61-54 70L253 0h-59l-57-94H76V0H24v-248c93 4 217-23 216 74zM76-134c48-2 112 12 112-38 0-48-66-32-112-35v73" id="aI"/><path d="M25 0v-261h50V0H25" id="aJ"/><g id="w"><use transform="matrix(0.07222222222222222,0,0,0.07222222222222222,0,0)" xlink:href="#Y"/><use transform="matrix(0.07222222222222222,0,0,0.07222222222222222,17.333333333333332,0)" xlink:href="#aw"/><use transform="matrix(0.07222222222222222,0,0,0.07222222222222222,25.927777777777774,0)" xlink:href="#af"/><use transform="matrix(0.07222222222222222,0,0,0.07222222222222222,36.03888888888889,0)" xlink:href="#ag"/><use transform="matrix(0.07222222222222222,0,0,0.07222222222222222,50.483333333333334,0)" xlink:href="#ar"/><use transform="matrix(0.07222222222222222,0,0,0.07222222222222222,64.92777777777778,0)" xlink:href="#ar"/><use transform="matrix(0.07222222222222222,0,0,0.07222222222222222,79.37222222222222,0)" xlink:href="#aH"/><use transform="matrix(0.07222222222222222,0,0,0.07222222222222222,87.96666666666667,0)" xlink:href="#aI"/><use transform="matrix(0.07222222222222222,0,0,0.07222222222222222,106.67222222222222,0)" xlink:href="#ag"/><use transform="matrix(0.07222222222222222,0,0,0.07222222222222222,121.11666666666666,0)" xlink:href="#aJ"/><use transform="matrix(0.07222222222222222,0,0,0.07222222222222222,128.33888888888887,0)" xlink:href="#ai"/><use transform="matrix(0.07222222222222222,0,0,0.07222222222222222,142.7833333333333,0)" xlink:href="#aw"/><use transform="matrix(0.07222222222222222,0,0,0.07222222222222222,151.37777777777774,0)" xlink:href="#ag"/><use transform="matrix(0.07222222222222222,0,0,0.07222222222222222,165.8222222222222,0)" xlink:href="#ap"/></g><g id="x"><use transform="matrix(0.07222222222222222,0,0,0.07222222222222222,0,0)" xlink:href="#aq"/><use transform="matrix(0.07222222222222222,0,0,0.07222222222222222,18.705555555555552,0)" xlink:href="#ab"/><use transform="matrix(0.07222222222222222,0,0,0.07222222222222222,25.927777777777774,0)" xlink:href="#ar"/><use transform="matrix(0.07222222222222222,0,0,0.07222222222222222,40.37222222222222,0)" xlink:href="#ad"/><use transform="matrix(0.07222222222222222,0,0,0.07222222222222222,56.18888888888888,0)" xlink:href="#af"/><use transform="matrix(0.07222222222222222,0,0,0.07222222222222222,66.3,0)" xlink:href="#ap"/><use transform="matrix(0.07222222222222222,0,0,0.07222222222222222,82.11666666666666,0)" xlink:href="#ag"/><use transform="matrix(0.07222222222222222,0,0,0.07222222222222222,96.5611111111111,0)" xlink:href="#af"/></g><g id="y"><use transform="matrix(0.07222222222222222,0,0,0.07222222222222222,0,0)" xlink:href="#al"/><use transform="matrix(0.07222222222222222,0,0,0.07222222222222222,14.444444444444443,0)" xlink:href="#as"/><use transform="matrix(0.07222222222222222,0,0,0.07222222222222222,28.888888888888886,0)" xlink:href="#aD"/><use transform="matrix(0.07222222222222222,0,0,0.07222222222222222,43.33333333333333,0)" xlink:href="#an"/></g><g id="z"><use transform="matrix(0.07222222222222222,0,0,0.07222222222222222,0,0)" xlink:href="#aq"/><use transform="matrix(0.07222222222222222,0,0,0.07222222222222222,18.705555555555552,0)" xlink:href="#ag"/><use transform="matrix(0.07222222222222222,0,0,0.07222222222222222,33.14999999999999,0)" xlink:href="#ae"/><use transform="matrix(0.07222222222222222,0,0,0.07222222222222222,48.966666666666654,0)" xlink:href="#af"/><use transform="matrix(0.07222222222222222,0,0,0.07222222222222222,59.077777777777776,0)" xlink:href="#ag"/><use transform="matrix(0.07222222222222222,0,0,0.07222222222222222,73.52222222222221,0)" xlink:href="#ar"/><use transform="matrix(0.07222222222222222,0,0,0.07222222222222222,87.96666666666665,0)" xlink:href="#ar"/><use transform="matrix(0.07222222222222222,0,0,0.07222222222222222,102.4111111111111,0)" xlink:href="#ab"/><use transform="matrix(0.07222222222222222,0,0,0.07222222222222222,109.63333333333333,0)" xlink:href="#aC"/><use transform="matrix(0.07222222222222222,0,0,0.07222222222222222,124.07777777777777,0)" xlink:href="#ag"/></g><g id="A"><use transform="matrix(0.07222222222222222,0,0,0.07222222222222222,0,0)" xlink:href="#aq"/><use transform="matrix(0.07222222222222222,0,0,0.07222222222222222,18.705555555555552,0)" xlink:href="#ab"/><use transform="matrix(0.07222222222222222,0,0,0.07222222222222222,25.927777777777774,0)" xlink:href="#ar"/><use transform="matrix(0.07222222222222222,0,0,0.07222222222222222,40.37222222222222,0)" xlink:href="#ad"/><use transform="matrix(0.07222222222222222,0,0,0.07222222222222222,56.18888888888888,0)" xlink:href="#af"/><use transform="matrix(0.07222222222222222,0,0,0.07222222222222222,66.3,0)" xlink:href="#ap"/><use transform="matrix(0.07222222222222222,0,0,0.07222222222222222,82.11666666666666,0)" xlink:href="#ag"/><use transform="matrix(0.07222222222222222,0,0,0.07222222222222222,96.5611111111111,0)" xlink:href="#af"/></g><g id="B"><use transform="matrix(0.07222222222222222,0,0,0.07222222222222222,0,0)" xlink:href="#aj"/><use transform="matrix(0.07222222222222222,0,0,0.07222222222222222,8.594444444444443,0)" xlink:href="#ah"/></g><use transform="matrix(0.07222222222222222,0,0,0.07222222222222222,0,0)" xlink:href="#ak" id="C"/><path d="M99-251c69 0 84 53 88 123 5 99-61 162-144 118-15-8-21-25-26-45l46-6c4 31 50 33 63 7 7-15 12-36 12-60-9 18-29 28-54 28-48 0-72-32-72-82 0-55 31-83 87-83zm-1 128c24 0 37-16 37-39 0-27-10-51-37-51-25 0-35 19-35 45 0 25 10 45 35 45" id="aK"/><g id="D"><use transform="matrix(0.07222222222222222,0,0,0.07222222222222222,0,0)" xlink:href="#al"/><use transform="matrix(0.07222222222222222,0,0,0.07222222222222222,12.999999999999998,0)" xlink:href="#al"/><use transform="matrix(0.07222222222222222,0,0,0.07222222222222222,27.444444444444443,0)" xlink:href="#aK"/><use transform="matrix(0.07222222222222222,0,0,0.07222222222222222,41.888888888888886,0)" xlink:href="#an"/></g><path d="M182-130c37 4 62 22 62 59C244 23 116-4 24 0v-248c84 5 203-23 205 63 0 31-19 50-47 55zM76-148c40-3 101 13 101-30 0-44-60-28-101-31v61zm0 110c48-3 116 14 116-37 0-48-69-32-116-35v72" id="aL"/><g id="E"><use transform="matrix(0.07222222222222222,0,0,0.07222222222222222,0,0)" xlink:href="#aL"/><use transform="matrix(0.07222222222222222,0,0,0.07222222222222222,18.705555555555552,0)" xlink:href="#ab"/><use transform="matrix(0.07222222222222222,0,0,0.07222222222222222,25.927777777777774,0)" xlink:href="#ae"/><use transform="matrix(0.07222222222222222,0,0,0.07222222222222222,41.74444444444444,0)" xlink:href="#ad"/><use transform="matrix(0.07222222222222222,0,0,0.07222222222222222,57.5611111111111,0)" xlink:href="#aJ"/><use transform="matrix(0.07222222222222222,0,0,0.07222222222222222,64.78333333333333,0)" xlink:href="#ai"/><use transform="matrix(0.07222222222222222,0,0,0.07222222222222222,79.22777777777777,0)" xlink:href="#af"/></g><path d="M24-248c93 1 206-16 204 79-1 75-69 88-152 82V0H24v-248zm52 121c47 0 100 7 100-41 0-47-54-39-100-39v80" id="aM"/><g id="F"><use transform="matrix(0.07222222222222222,0,0,0.07222222222222222,0,0)" xlink:href="#aM"/><use transform="matrix(0.07222222222222222,0,0,0.07222222222222222,17.333333333333332,0)" xlink:href="#ai"/><use transform="matrix(0.07222222222222222,0,0,0.07222222222222222,31.777777777777775,0)" xlink:href="#ah"/><use transform="matrix(0.07222222222222222,0,0,0.07222222222222222,47.59444444444444,0)" xlink:href="#ab"/><use transform="matrix(0.07222222222222222,0,0,0.07222222222222222,54.81666666666666,0)" xlink:href="#Z"/></g><g id="G"><use transform="matrix(0.07222222222222222,0,0,0.07222222222222222,0,0)" xlink:href="#Y"/><use transform="matrix(0.07222222222222222,0,0,0.07222222222222222,17.333333333333332,0)" xlink:href="#ad"/><use transform="matrix(0.07222222222222222,0,0,0.07222222222222222,33.15,0)" xlink:href="#Z"/><use transform="matrix(0.07222222222222222,0,0,0.07222222222222222,47.59444444444444,0)" xlink:href="#ab"/><use transform="matrix(0.07222222222222222,0,0,0.07222222222222222,54.81666666666666,0)" xlink:href="#ai"/><use transform="matrix(0.07222222222222222,0,0,0.07222222222222222,69.2611111111111,0)" xlink:href="#aJ"/></g><g id="H"><use transform="matrix(0.07222222222222222,0,0,0.07222222222222222,0,0)" xlink:href="#au"/><use transform="matrix(0.07222222222222222,0,0,0.07222222222222222,18.705555555555552,0)" xlink:href="#ah"/><use transform="matrix(0.07222222222222222,0,0,0.07222222222222222,34.52222222222222,0)" xlink:href="#av"/><use transform="matrix(0.07222222222222222,0,0,0.07222222222222222,48.96666666666666,0)" xlink:href="#ab"/><use transform="matrix(0.07222222222222222,0,0,0.07222222222222222,56.18888888888888,0)" xlink:href="#ag"/><use transform="matrix(0.07222222222222222,0,0,0.07222222222222222,70.63333333333333,0)" xlink:href="#aw"/><use transform="matrix(0.07222222222222222,0,0,0.07222222222222222,79.22777777777777,0)" xlink:href="#ax"/></g><g id="I"><use transform="matrix(0.07222222222222222,0,0,0.07222222222222222,0,0)" xlink:href="#aq"/><use transform="matrix(0.07222222222222222,0,0,0.07222222222222222,18.705555555555552,0)" xlink:href="#ab"/><use transform="matrix(0.07222222222222222,0,0,0.07222222222222222,25.927777777777774,0)" xlink:href="#ar"/><use transform="matrix(0.07222222222222222,0,0,0.07222222222222222,40.37222222222222,0)" xlink:href="#ad"/><use transform="matrix(0.07222222222222222,0,0,0.07222222222222222,56.18888888888888,0)" xlink:href="#af"/><use transform="matrix(0.07222222222222222,0,0,0.07222222222222222,66.3,0)" xlink:href="#ap"/><use transform="matrix(0.07222222222222222,0,0,0.07222222222222222,82.11666666666666,0)" xlink:href="#ag"/><use transform="matrix(0.07222222222222222,0,0,0.07222222222222222,96.5611111111111,0)" xlink:href="#af"/></g><path d="M186 0v-106H76V0H24v-248h52v99h110v-99h50V0h-50" id="aN"/><g id="J"><use transform="matrix(0.07222222222222222,0,0,0.07222222222222222,0,0)" xlink:href="#aN"/><use transform="matrix(0.07222222222222222,0,0,0.07222222222222222,18.705555555555552,0)" xlink:href="#ag"/><use transform="matrix(0.07222222222222222,0,0,0.07222222222222222,33.14999999999999,0)" xlink:href="#ai"/><use transform="matrix(0.07222222222222222,0,0,0.07222222222222222,47.594444444444434,0)" xlink:href="#aJ"/><use transform="matrix(0.07222222222222222,0,0,0.07222222222222222,54.816666666666656,0)" xlink:href="#aw"/><use transform="matrix(0.07222222222222222,0,0,0.07222222222222222,63.4111111111111,0)" xlink:href="#aa"/><use transform="matrix(0.07222222222222222,0,0,0.07222222222222222,79.22777777777776,0)" xlink:href="#ax"/></g><g id="K"><use transform="matrix(0.07222222222222222,0,0,0.07222222222222222,0,0)" xlink:href="#aA"/><use transform="matrix(0.07222222222222222,0,0,0.07222222222222222,18.705555555555552,0)" xlink:href="#ad"/><use transform="matrix(0.07222222222222222,0,0,0.07222222222222222,34.52222222222222,0)" xlink:href="#ah"/><use transform="matrix(0.07222222222222222,0,0,0.07222222222222222,50.33888888888888,0)" xlink:href="#aw"/><use transform="matrix(0.07222222222222222,0,0,0.07222222222222222,58.93333333333332,0)" xlink:href="#af"/><use transform="matrix(0.07222222222222222,0,0,0.07222222222222222,69.04444444444444,0)" xlink:href="#ad"/><use transform="matrix(0.07222222222222222,0,0,0.07222222222222222,84.8611111111111,0)" xlink:href="#aJ"/></g><path d="M139-81c0-46-55-55-73-27H18l9-140h149v37H72l-4 63c44-38 133-4 122 66C201 21 21 35 11-62l49-4c5 18 15 30 39 30 26 0 40-18 40-45" id="aO"/><g id="L"><use transform="matrix(0.07222222222222222,0,0,0.07222222222222222,0,0)" xlink:href="#aK"/><use transform="matrix(0.07222222222222222,0,0,0.07222222222222222,14.444444444444443,0)" xlink:href="#aO"/><use transform="matrix(0.07222222222222222,0,0,0.07222222222222222,28.888888888888886,0)" xlink:href="#an"/></g><g id="M"><use transform="matrix(0.07222222222222222,0,0,0.07222222222222222,0,0)" xlink:href="#au"/><use transform="matrix(0.07222222222222222,0,0,0.07222222222222222,18.705555555555552,0)" xlink:href="#aJ"/><use transform="matrix(0.07222222222222222,0,0,0.07222222222222222,25.927777777777774,0)" xlink:href="#Z"/><use transform="matrix(0.07222222222222222,0,0,0.07222222222222222,40.37222222222222,0)" xlink:href="#ad"/><use transform="matrix(0.07222222222222222,0,0,0.07222222222222222,56.18888888888888,0)" xlink:href="#aa"/><use transform="matrix(0.07222222222222222,0,0,0.07222222222222222,72.00555555555555,0)" xlink:href="#ad"/><use transform="matrix(0.07222222222222222,0,0,0.07222222222222222,87.82222222222221,0)" xlink:href="#aJ"/></g><path d="M238-95c0 69-44 99-111 99C63 4 22-25 22-93v-155h51v151c-1 38 19 59 55 60 90 1 49-130 58-211h52v153" id="aP"/><g id="N"><use transform="matrix(0.07222222222222222,0,0,0.07222222222222222,0,0)" xlink:href="#aP"/><use transform="matrix(0.07222222222222222,0,0,0.07222222222222222,18.705555555555552,0)" xlink:href="#ar"/><use transform="matrix(0.07222222222222222,0,0,0.07222222222222222,33.14999999999999,0)" xlink:href="#ag"/></g><path d="M128-127c34 4 56 21 59 58 7 91-148 94-172 28-4-9-6-17-7-26l51-5c1 24 16 35 40 36 23 0 39-12 38-36-1-31-31-36-65-34v-40c32 2 59-3 59-33 0-20-13-33-34-33s-33 13-35 32l-50-3c6-44 37-68 86-68 50 0 83 20 83 66 0 35-22 52-53 58" id="aQ"/><g id="O"><use transform="matrix(0.07222222222222222,0,0,0.07222222222222222,0,0)" xlink:href="#aK"/><use transform="matrix(0.07222222222222222,0,0,0.07222222222222222,14.444444444444443,0)" xlink:href="#aQ"/><use transform="matrix(0.07222222222222222,0,0,0.07222222222222222,28.888888888888886,0)" xlink:href="#an"/></g><g id="P"><use transform="matrix(0.07222222222222222,0,0,0.07222222222222222,0,0)" xlink:href="#aL"/><use transform="matrix(0.07222222222222222,0,0,0.07222222222222222,18.705555555555552,0)" xlink:href="#ag"/><use transform="matrix(0.07222222222222222,0,0,0.07222222222222222,33.14999999999999,0)" xlink:href="#aa"/><use transform="matrix(0.07222222222222222,0,0,0.07222222222222222,48.966666666666654,0)" xlink:href="#ai"/><use transform="matrix(0.07222222222222222,0,0,0.07222222222222222,63.4111111111111,0)" xlink:href="#aC"/><use transform="matrix(0.07222222222222222,0,0,0.07222222222222222,77.85555555555555,0)" xlink:href="#ab"/><use transform="matrix(0.07222222222222222,0,0,0.07222222222222222,85.07777777777775,0)" xlink:href="#ad"/><use transform="matrix(0.07222222222222222,0,0,0.07222222222222222,100.89444444444442,0)" xlink:href="#af"/><use transform="matrix(0.07222222222222222,0,0,0.07222222222222222,111.00555555555553,0)" xlink:href="#ai"/><use transform="matrix(0.07222222222222222,0,0,0.07222222222222222,125.44999999999997,0)" xlink:href="#aJ"/></g><g id="Q"><use transform="matrix(0.07222222222222222,0,0,0.07222222222222222,0,0)" xlink:href="#au"/><use transform="matrix(0.07222222222222222,0,0,0.07222222222222222,18.705555555555552,0)" xlink:href="#ap"/><use transform="matrix(0.07222222222222222,0,0,0.07222222222222222,34.52222222222222,0)" xlink:href="#ap"/><use transform="matrix(0.07222222222222222,0,0,0.07222222222222222,50.33888888888888,0)" xlink:href="#ab"/><use transform="matrix(0.07222222222222222,0,0,0.07222222222222222,57.5611111111111,0)" xlink:href="#Z"/><use transform="matrix(0.07222222222222222,0,0,0.07222222222222222,72.00555555555555,0)" xlink:href="#aw"/><use transform="matrix(0.07222222222222222,0,0,0.07222222222222222,80.6,0)" xlink:href="#ab"/><use transform="matrix(0.07222222222222222,0,0,0.07222222222222222,87.82222222222224,0)" xlink:href="#ad"/><use transform="matrix(0.07222222222222222,0,0,0.07222222222222222,103.63888888888889,0)" xlink:href="#ah"/></g><g id="R"><use transform="matrix(0.07222222222222222,0,0,0.07222222222222222,0,0)" xlink:href="#aM"/><use transform="matrix(0.07222222222222222,0,0,0.07222222222222222,17.333333333333332,0)" xlink:href="#ad"/><use transform="matrix(0.07222222222222222,0,0,0.07222222222222222,33.15,0)" xlink:href="#ar"/><use transform="matrix(0.07222222222222222,0,0,0.07222222222222222,47.59444444444444,0)" xlink:href="#aw"/><use transform="matrix(0.07222222222222222,0,0,0.07222222222222222,56.18888888888888,0)" xlink:href="#aH"/><use transform="matrix(0.07222222222222222,0,0,0.07222222222222222,64.78333333333333,0)" xlink:href="#aE"/><use transform="matrix(0.07222222222222222,0,0,0.07222222222222222,79.15555555555555,0)" xlink:href="#af"/><use transform="matrix(0.07222222222222222,0,0,0.07222222222222222,89.26666666666665,0)" xlink:href="#ai"/><use transform="matrix(0.07222222222222222,0,0,0.07222222222222222,103.7111111111111,0)" xlink:href="#aF"/><use transform="matrix(0.07222222222222222,0,0,0.07222222222222222,119.52777777777777,0)" xlink:href="#aG"/><use transform="matrix(0.07222222222222222,0,0,0.07222222222222222,142.63888888888889,0)" xlink:href="#ai"/><use transform="matrix(0.07222222222222222,0,0,0.07222222222222222,157.08333333333331,0)" xlink:href="#aw"/><use transform="matrix(0.07222222222222222,0,0,0.07222222222222222,165.67777777777775,0)" xlink:href="#ab"/><use transform="matrix(0.07222222222222222,0,0,0.07222222222222222,172.89999999999998,0)" xlink:href="#Z"/></g><g id="S"><use transform="matrix(0.07222222222222222,0,0,0.07222222222222222,0,0)" xlink:href="#Y"/><use transform="matrix(0.07222222222222222,0,0,0.07222222222222222,17.333333333333332,0)" xlink:href="#aw"/><use transform="matrix(0.07222222222222222,0,0,0.07222222222222222,25.927777777777774,0)" xlink:href="#af"/><use transform="matrix(0.07222222222222222,0,0,0.07222222222222222,36.03888888888889,0)" xlink:href="#ag"/><use transform="matrix(0.07222222222222222,0,0,0.07222222222222222,50.483333333333334,0)" xlink:href="#ar"/><use transform="matrix(0.07222222222222222,0,0,0.07222222222222222,64.92777777777778,0)" xlink:href="#ar"/></g><g id="T"><use transform="matrix(0.07222222222222222,0,0,0.07222222222222222,0,0)" xlink:href="#aO"/><use transform="matrix(0.07222222222222222,0,0,0.07222222222222222,14.444444444444443,0)" xlink:href="#as"/><use transform="matrix(0.07222222222222222,0,0,0.07222222222222222,28.888888888888886,0)" xlink:href="#an"/></g><g id="U"><use transform="matrix(0.07222222222222222,0,0,0.07222222222222222,0,0)" xlink:href="#au"/><use transform="matrix(0.07222222222222222,0,0,0.07222222222222222,18.705555555555552,0)" xlink:href="#Z"/><use transform="matrix(0.07222222222222222,0,0,0.07222222222222222,33.14999999999999,0)" xlink:href="#aF"/><use transform="matrix(0.07222222222222222,0,0,0.07222222222222222,48.966666666666654,0)" xlink:href="#aw"/><use transform="matrix(0.07222222222222222,0,0,0.07222222222222222,57.561111111111096,0)" xlink:href="#ag"/></g><g id="V"><use transform="matrix(0.07222222222222222,0,0,0.07222222222222222,0,0)" xlink:href="#aQ"/><use transform="matrix(0.07222222222222222,0,0,0.07222222222222222,14.444444444444443,0)" xlink:href="#aD"/><use transform="matrix(0.07222222222222222,0,0,0.07222222222222222,28.888888888888886,0)" xlink:href="#an"/></g><path d="M25-224v-37h50v37H25zM75 22c2 45-34 59-81 51V38c22 5 31-5 31-27v-201h50V22" id="aR"/><g id="W"><use transform="matrix(0.07222222222222222,0,0,0.07222222222222222,0,0)" xlink:href="#au"/><use transform="matrix(0.07222222222222222,0,0,0.07222222222222222,18.705555555555552,0)" xlink:href="#ap"/><use transform="matrix(0.07222222222222222,0,0,0.07222222222222222,34.52222222222222,0)" xlink:href="#aR"/><use transform="matrix(0.07222222222222222,0,0,0.07222222222222222,41.74444444444444,0)" xlink:href="#aF"/><use transform="matrix(0.07222222222222222,0,0,0.07222222222222222,57.5611111111111,0)" xlink:href="#ar"/><use transform="matrix(0.07222222222222222,0,0,0.07222222222222222,72.00555555555555,0)" xlink:href="#aw"/><use transform="matrix(0.07222222222222222,0,0,0.07222222222222222,80.6,0)" xlink:href="#aG"/><use transform="matrix(0.07222222222222222,0,0,0.07222222222222222,103.7111111111111,0)" xlink:href="#ag"/><use transform="matrix(0.07222222222222222,0,0,0.07222222222222222,118.15555555555555,0)" xlink:href="#ah"/><use transform="matrix(0.07222222222222222,0,0,0.07222222222222222,133.97222222222223,0)" xlink:href="#aw"/></g><g id="X"><use transform="matrix(0.07222222222222222,0,0,0.07222222222222222,0,0)" xlink:href="#aQ"/><use transform="matrix(0.07222222222222222,0,0,0.07222222222222222,14.444444444444443,0)" xlink:href="#aD"/><use transform="matrix(0.07222222222222222,0,0,0.07222222222222222,28.888888888888886,0)" xlink:href="#an"/></g></defs></g></svg>
